<svg width="103" height="28" viewBox="0 0 103 28" fill="none" xmlns="http://www.w3.org/2000/svg">
<path d="M14.9295 0.724976C15.0799 2.17216 14.5382 3.59824 13.7465 4.64647C12.9203 5.67839 11.5987 6.46768 10.3115 6.36602C10.143 4.9735 10.7952 3.49275 11.5253 2.58934C12.3506 1.56413 13.7836 0.778682 14.9295 0.724976Z" fill="#E8E8E8"/>
<path d="M19.1433 9.07327C18.9997 9.16404 16.6191 10.6683 16.6452 13.7362C16.6759 17.4409 19.7069 18.6656 19.7431 18.6781C19.725 18.7644 19.2685 20.4475 18.1316 22.1527C17.1823 23.6565 16.1877 25.1267 14.6079 25.1516C13.8566 25.1704 13.3494 24.9418 12.8208 24.7036C12.2697 24.4552 11.6954 24.1964 10.797 24.1964C9.84472 24.1964 9.24492 24.4638 8.66655 24.7216C8.16609 24.9447 7.68169 25.1606 6.99885 25.1899C5.49425 25.2485 4.34474 23.5864 3.36099 22.0961C1.39441 19.055 -0.136458 13.5262 1.91618 9.76388C2.91079 7.91869 4.72428 6.73045 6.66278 6.6988C7.51641 6.68032 8.33513 7.02862 9.05286 7.33394C9.60172 7.56743 10.0915 7.7758 10.4927 7.7758C10.845 7.7758 11.3211 7.57577 11.8759 7.34262C12.7503 6.97521 13.8204 6.52556 14.9105 6.64701C15.656 6.67003 17.7775 6.9587 19.1462 9.07145L19.1433 9.07327Z" fill="#E8E8E8"/>
<path fill-rule="evenodd" clip-rule="evenodd" d="M30.0406 1.55094H27.9142V8.24919H30.0406C31.9215 8.24919 33.0264 7.0098 33.0264 4.89774C33.0264 2.79033 31.9171 1.55094 30.0406 1.55094ZM28.7034 2.30293V7.4972H29.988C31.4217 7.4972 32.2197 6.56882 32.2197 4.90703C32.2197 3.23131 31.4261 2.30293 29.988 2.30293H28.7034Z" fill="#E8E8E8"/>
<path fill-rule="evenodd" clip-rule="evenodd" d="M36.0747 8.33274C34.812 8.33274 33.9614 7.37187 33.9614 5.8354C33.9614 4.2943 34.812 3.33807 36.0747 3.33807C37.3331 3.33807 38.1836 4.2943 38.1836 5.8354C38.1836 7.37187 37.3331 8.33274 36.0747 8.33274ZM37.4076 5.8354C37.4076 6.97267 36.8815 7.62253 36.0747 7.62253C35.268 7.62253 34.7375 6.97267 34.7375 5.8354C34.7375 4.69814 35.268 4.04828 36.0747 4.04828C36.8815 4.04828 37.4076 4.69814 37.4076 5.8354Z" fill="#E8E8E8"/>
<path d="M43.0033 8.24919H43.7793L45.0508 3.42162H44.2967L43.3847 7.34866H43.3672L42.3325 3.42162H41.5959L40.5656 7.34866H40.548L39.6361 3.42162H38.8775L40.1534 8.24919H40.9295L41.9554 4.51247H41.973L43.0033 8.24919Z" fill="#E8E8E8"/>
<path d="M46.6918 3.42162H45.9727V8.24919H46.7356V5.40835C46.7356 4.59138 47.2047 4.05292 47.9238 4.05292C48.6253 4.05292 48.9717 4.47997 48.9717 5.25981V8.24919H49.7345V5.11591C49.7345 4.02043 49.1558 3.33807 48.1562 3.33807C47.4503 3.33807 46.9636 3.67229 46.7093 4.19218H46.6918V3.42162Z" fill="#E8E8E8"/>
<path d="M51.0423 1.55094V8.24919H51.8052V1.55094H51.0423Z" fill="#E8E8E8"/>
<path fill-rule="evenodd" clip-rule="evenodd" d="M52.9112 5.8354C52.9112 7.37187 53.7618 8.33274 55.0245 8.33274C56.2828 8.33274 57.1334 7.37187 57.1334 5.8354C57.1334 4.2943 56.2828 3.33807 55.0245 3.33807C53.7618 3.33807 52.9112 4.2943 52.9112 5.8354ZM55.0245 7.62253C55.8312 7.62253 56.3574 6.97267 56.3574 5.8354C56.3574 4.69814 55.8312 4.04828 55.0245 4.04828C54.2178 4.04828 53.6872 4.69814 53.6872 5.8354C53.6872 6.97267 54.2178 7.62253 55.0245 7.62253Z" fill="#E8E8E8"/>
<path fill-rule="evenodd" clip-rule="evenodd" d="M59.5329 8.33274C58.6253 8.33274 58.0158 7.7525 58.0158 6.88447C58.0158 6.05822 58.6165 5.53832 59.6688 5.47334L60.9753 5.39443V4.99058C60.9753 4.40106 60.607 4.04828 59.9757 4.04828C59.3882 4.04828 59.0199 4.34072 58.9234 4.81419H58.1868C58.2394 3.97865 58.9146 3.33807 59.9932 3.33807C61.063 3.33807 61.7382 3.9508 61.7382 4.91167V8.24919H61.0148V7.41829H60.9972C60.7254 7.97067 60.1467 8.33274 59.5329 8.33274ZM60.9753 6.41564C60.9753 7.11192 60.4229 7.64574 59.7038 7.64574C59.1558 7.64574 58.7919 7.34402 58.7919 6.88447C58.7919 6.42957 59.1426 6.14177 59.7565 6.09999L60.9753 6.02108V6.41564Z" fill="#E8E8E8"/>
<path fill-rule="evenodd" clip-rule="evenodd" d="M62.7829 5.8354C62.7829 7.34866 63.5721 8.33274 64.7339 8.33274C65.3916 8.33274 65.9133 7.98924 66.2071 7.43221H66.2203V8.24919H66.9481V1.55094H66.1852V4.2061H66.1676C65.8958 3.67693 65.3697 3.33807 64.7164 3.33807C63.5677 3.33807 62.7829 4.32215 62.7829 5.8354ZM64.8786 4.04828C64.0719 4.04828 63.5633 4.74456 63.5633 5.8354C63.5633 6.93089 64.0719 7.62253 64.8786 7.62253C65.6634 7.62253 66.1896 6.91696 66.1896 5.8354C66.1896 4.75849 65.6634 4.04828 64.8786 4.04828Z" fill="#E8E8E8"/>
<path fill-rule="evenodd" clip-rule="evenodd" d="M72.3082 8.33274C71.0455 8.33274 70.1949 7.37187 70.1949 5.8354C70.1949 4.2943 71.0455 3.33807 72.3082 3.33807C73.5665 3.33807 74.4171 4.2943 74.4171 5.8354C74.4171 7.37187 73.5665 8.33274 72.3082 8.33274ZM73.641 5.8354C73.641 6.97267 73.1149 7.62253 72.3082 7.62253C71.5014 7.62253 70.9709 6.97267 70.9709 5.8354C70.9709 4.69814 71.5014 4.04828 72.3082 4.04828C73.1149 4.04828 73.641 4.69814 73.641 5.8354Z" fill="#E8E8E8"/>
<path d="M76.2027 3.42162H75.4837V8.24919H76.2466V5.40835C76.2466 4.59138 76.7157 4.05292 77.4347 4.05292C78.1362 4.05292 78.4826 4.47997 78.4826 5.25981V8.24919H79.2455V5.11591C79.2455 4.02043 78.6668 3.33807 77.6671 3.33807C76.9612 3.33807 76.4745 3.67229 76.2203 4.19218H76.2027V3.42162Z" fill="#E8E8E8"/>
<path d="M83.6629 2.25651H82.9001V3.42162H82.2205V4.08541H82.9001V6.99588C82.9001 7.92425 83.2245 8.28632 84.0619 8.28632C84.2417 8.28632 84.4521 8.2724 84.5442 8.24919V7.57147C84.4916 7.58075 84.3162 7.59468 84.2285 7.59468C83.8383 7.59468 83.6629 7.39508 83.6629 6.9541V4.08541H84.5486V3.42162H83.6629V2.25651Z" fill="#E8E8E8"/>
<path d="M85.6985 1.55094V8.24919H86.4614V5.4362C86.4614 4.60066 86.9305 4.05292 87.689 4.05292C88.4037 4.05292 88.7676 4.51247 88.7676 5.27838V8.24919H89.5305V5.12984C89.5305 4.05292 88.9254 3.33807 87.9258 3.33807C87.233 3.33807 86.7332 3.65372 86.4789 4.19218H86.4614V1.55094H85.6985Z" fill="#E8E8E8"/>
<path fill-rule="evenodd" clip-rule="evenodd" d="M94.5737 6.8659H93.824C93.6968 7.32081 93.2716 7.63181 92.6928 7.63181C91.8729 7.63181 91.3599 7.02373 91.3599 6.09999V6.05357H94.6307V5.74721C94.6307 4.28501 93.8722 3.33807 92.6402 3.33807C91.3819 3.33807 90.5751 4.35464 90.5751 5.85397C90.5751 7.37187 91.3687 8.33274 92.6753 8.33274C93.6705 8.33274 94.4422 7.71073 94.5737 6.8659ZM92.627 4.03899C91.9124 4.03899 91.4126 4.61923 91.3643 5.42228H93.8415C93.824 4.61459 93.3461 4.03899 92.627 4.03899Z" fill="#E8E8E8"/>
<path fill-rule="evenodd" clip-rule="evenodd" d="M35.3021 24.6697L34.1972 21.2136H29.5936L28.4887 24.6697H26.5384L30.8993 11.8821H32.9249L37.2858 24.6697H35.3021ZM30.0707 19.6184L31.8703 14.0089H31.9205L33.7201 19.6184H30.0707Z" fill="#E8E8E8"/>
<path fill-rule="evenodd" clip-rule="evenodd" d="M47.1021 20.0084C47.1021 17.0574 45.629 15.1964 43.3941 15.1964C42.1218 15.1964 41.109 15.8788 40.5901 16.951H40.5566V15.3471H38.8072V27.7536H40.6152V23.1366H40.657C41.1593 24.1734 42.1637 24.8292 43.4276 24.8292C45.6373 24.8292 47.1021 22.9593 47.1021 20.0084ZM42.917 23.2075C44.3483 23.2075 45.2439 21.9668 45.2439 20.0084C45.2439 18.0588 44.3483 16.8092 42.917 16.8092C41.5359 16.8092 40.6068 18.0853 40.6068 20.0084C40.6068 21.9491 41.5275 23.2075 42.917 23.2075Z" fill="#E8E8E8"/>
<path fill-rule="evenodd" clip-rule="evenodd" d="M53.4867 15.1964C55.7215 15.1964 57.1947 17.0574 57.1947 20.0084C57.1947 22.9593 55.7299 24.8292 53.5201 24.8292C52.2562 24.8292 51.2518 24.1734 50.7496 23.1366H50.7077V27.7536H48.8998V15.3471H50.6491V16.951H50.6826C51.2016 15.8788 52.2144 15.1964 53.4867 15.1964ZM55.3365 20.0084C55.3365 21.9668 54.4409 23.2075 53.0095 23.2075C51.6201 23.2075 50.6994 21.9491 50.6994 20.0084C50.6994 18.0853 51.6285 16.8092 53.0095 16.8092C54.4409 16.8092 55.3365 18.0588 55.3365 20.0084Z" fill="#E8E8E8"/>
<path d="M64.4059 21.1072H62.556C62.6732 23.4201 64.4812 24.8823 67.1597 24.8823C70.0223 24.8823 71.8219 23.3847 71.8219 20.992C71.8219 19.1222 70.7924 18.0676 68.3148 17.4473L66.9839 17.1017C65.427 16.694 64.7909 16.1623 64.7909 15.2584C64.7909 14.1241 65.7869 13.3443 67.2434 13.3443C68.6998 13.3443 69.6959 14.1153 69.8047 15.3914H71.6294C71.5708 13.1848 69.8214 11.6694 67.2685 11.6694C64.6904 11.6694 62.8741 13.1848 62.8741 15.3914C62.8741 17.1726 63.9036 18.2714 66.1218 18.8386L67.687 19.2374C69.2522 19.645 69.9135 20.2388 69.9135 21.2313C69.9135 22.3744 68.817 23.2075 67.2936 23.2075C65.7032 23.2075 64.5398 22.3744 64.4059 21.1072Z" fill="#E8E8E8"/>
<path d="M76.0385 13.1405H74.2222V15.3471H72.9415V16.8624H74.2222V22.2149C74.2222 24.0139 74.9169 24.7317 76.6998 24.7317C77.1015 24.7317 77.5033 24.6962 77.7042 24.6431V23.1277C77.587 23.1543 77.2941 23.172 77.1099 23.172C76.3733 23.172 76.0385 22.8087 76.0385 22.0023V16.8624H77.7126V15.3471H76.0385V13.1405Z" fill="#E8E8E8"/>
<path fill-rule="evenodd" clip-rule="evenodd" d="M78.9996 20.0084C78.9996 23.0125 80.6569 24.8469 83.1764 24.8469C85.6958 24.8469 87.3531 23.0125 87.3531 20.0084C87.3531 17.0131 85.6874 15.1787 83.1764 15.1787C80.6653 15.1787 78.9996 17.0131 78.9996 20.0084ZM83.1764 23.2695C84.5993 23.2695 85.5117 22.082 85.5117 20.0084C85.5117 17.9436 84.5909 16.7561 83.1764 16.7561C81.7618 16.7561 80.8411 17.9436 80.8411 20.0084C80.8411 22.082 81.7618 23.2695 83.1764 23.2695Z" fill="#E8E8E8"/>
<path d="M89.1591 15.3471H90.8834V16.9333H90.9252C91.2182 15.8433 92.005 15.1964 93.0429 15.1964C93.3024 15.1964 93.5284 15.2407 93.6623 15.2673V17.0485C93.52 16.9865 93.2019 16.9422 92.8504 16.9422C91.6869 16.9422 90.9671 17.7663 90.9671 19.0867V24.6697H89.1591V15.3471Z" fill="#E8E8E8"/>
<path fill-rule="evenodd" clip-rule="evenodd" d="M101.026 21.938H102.742C102.491 23.6394 100.968 24.8535 98.9503 24.8535C96.3639 24.8535 94.7987 23.0014 94.7987 20.0593C94.7987 17.1349 96.389 15.1853 98.875 15.1853C101.319 15.1853 102.842 17.0108 102.842 19.8377V20.4935H96.6234V20.6087C96.6234 22.2304 97.5441 23.3027 98.9922 23.3027C100.022 23.3027 100.783 22.7533 101.026 21.938ZM96.6234 19.2655L101.026 19.2214C101.026 18.8286 100.871 18.1005 100.506 17.7144C100.141 17.3282 99.6044 17.0351 98.875 17.0351C97.4062 17.0351 96.6234 18.074 96.6234 19.2655Z" fill="#E8E8E8"/>
</svg>
