<svg width="32" height="32" viewBox="0 0 32 32" fill="none" xmlns="http://www.w3.org/2000/svg">
<path d="M24.3567 0H7.53287C3.43366 0 0.110596 3.32306 0.110596 7.42227V24.2461C0.110596 28.3453 3.43366 31.6684 7.53287 31.6684H24.3567C28.4559 31.6684 31.779 28.3453 31.779 24.2461V7.42227C31.779 3.32306 28.4559 0 24.3567 0Z" fill="url(#paint0_radial_925_1181)"/>
<path d="M24.3567 0H7.53287C3.43366 0 0.110596 3.32306 0.110596 7.42227V24.2461C0.110596 28.3453 3.43366 31.6684 7.53287 31.6684H24.3567C28.4559 31.6684 31.779 28.3453 31.779 24.2461V7.42227C31.779 3.32306 28.4559 0 24.3567 0Z" fill="url(#paint1_radial_925_1181)"/>
<path d="M15.946 3.46362C12.5865 3.46362 12.1648 3.47834 10.8453 3.53834C9.52836 3.59871 8.6294 3.80715 7.84289 4.11307C7.02916 4.42901 6.33901 4.85171 5.65146 5.53951C4.96329 6.22718 4.5406 6.91733 4.22366 7.73069C3.91688 8.51745 3.70819 9.41678 3.64893 10.7331C3.58993 12.0527 3.57446 12.4745 3.57446 15.8342C3.57446 19.1939 3.58931 19.6142 3.64918 20.9337C3.7098 22.2506 3.91824 23.1496 4.22391 23.9361C4.5401 24.7498 4.9628 25.44 5.6506 26.1275C6.33802 26.8157 7.02817 27.2394 7.84128 27.5553C8.62841 27.8612 9.5275 28.0697 10.8442 28.1301C12.1638 28.1901 12.5851 28.2048 15.9445 28.2048C19.3045 28.2048 19.7248 28.1901 21.0443 28.1301C22.3612 28.0697 23.2612 27.8612 24.0483 27.5553C24.8617 27.2394 25.5508 26.8157 26.2381 26.1275C26.9263 25.44 27.3489 24.7498 27.6659 23.9365C27.97 23.1496 28.1788 22.2504 28.2407 20.9339C28.2999 19.6145 28.3154 19.1939 28.3154 15.8342C28.3154 12.4745 28.2999 12.0529 28.2407 10.7334C28.1788 9.41641 27.97 8.51757 27.6659 7.73106C27.3489 6.91733 26.9263 6.22718 26.2381 5.53951C25.5501 4.85146 24.8619 4.42877 24.0476 4.1132C23.2589 3.80715 22.3595 3.59858 21.0425 3.53834C19.723 3.47834 19.3029 3.46362 15.9422 3.46362H15.946ZM14.8363 5.6929C15.1657 5.69241 15.5332 5.6929 15.946 5.6929C19.2491 5.6929 19.6405 5.70478 20.9448 5.76403C22.1509 5.8192 22.8056 6.02072 23.2416 6.19007C23.819 6.41422 24.2305 6.68229 24.6632 7.11538C25.0962 7.54835 25.3641 7.96065 25.5889 8.53798C25.7583 8.97342 25.96 9.62807 26.015 10.8342C26.0742 12.1383 26.0871 12.5299 26.0871 15.8314C26.0871 19.1328 26.0742 19.5246 26.015 20.8285C25.9598 22.0346 25.7583 22.6893 25.5889 23.1248C25.3648 23.7022 25.0962 24.1132 24.6632 24.546C24.2303 24.9789 23.8192 25.2469 23.2416 25.4712C22.8061 25.6412 22.1509 25.8423 20.9448 25.8974C19.6407 25.9567 19.2491 25.9696 15.946 25.9696C12.6429 25.9696 12.2513 25.9567 10.9474 25.8974C9.74126 25.8418 9.08661 25.6403 8.65018 25.4709C8.07298 25.2466 7.66055 24.9787 7.22758 24.5457C6.79462 24.1128 6.52667 23.7014 6.3019 23.1239C6.13255 22.6883 5.93079 22.0337 5.87586 20.8275C5.81661 19.5234 5.80473 19.1318 5.80473 15.8283C5.80473 12.5249 5.81661 12.1352 5.87586 10.8311C5.93103 9.62497 6.13255 8.97033 6.3019 8.53427C6.52618 7.95694 6.79462 7.54464 7.22771 7.11167C7.66067 6.6787 8.07298 6.41064 8.65031 6.18599C9.08637 6.01589 9.74126 5.81487 10.9474 5.75945C12.0886 5.70787 12.5308 5.69241 14.8363 5.68981V5.6929ZM22.5494 7.74689C21.7298 7.74689 21.0649 8.41119 21.0649 9.23085C21.0649 10.0504 21.7298 10.7153 22.5494 10.7153C23.3689 10.7153 24.0338 10.0504 24.0338 9.23085C24.0338 8.41131 23.3689 7.7464 22.5494 7.7464V7.74689ZM15.946 9.48135C12.4378 9.48135 9.59331 12.3258 9.59331 15.8342C9.59331 19.3426 12.4378 22.1857 15.946 22.1857C19.4544 22.1857 22.2979 19.3426 22.2979 15.8342C22.2979 12.3259 19.4542 9.48135 15.9458 9.48135H15.946ZM15.946 11.7106C18.2233 11.7106 20.0696 13.5567 20.0696 15.8342C20.0696 18.1115 18.2233 19.9578 15.946 19.9578C13.6686 19.9578 11.8226 18.1115 11.8226 15.8342C11.8226 13.5567 13.6686 11.7106 15.946 11.7106Z" fill="white"/>
<defs>
<radialGradient id="paint0_radial_925_1181" cx="0" cy="0" r="1" gradientUnits="userSpaceOnUse" gradientTransform="translate(8.5225 34.1074) rotate(-90) scale(31.3857 29.1912)">
<stop stop-color="#FFDD55"/>
<stop offset="0.1" stop-color="#FFDD55"/>
<stop offset="0.5" stop-color="#FF543E"/>
<stop offset="1" stop-color="#C837AB"/>
</radialGradient>
<radialGradient id="paint1_radial_925_1181" cx="0" cy="0" r="1" gradientUnits="userSpaceOnUse" gradientTransform="translate(-5.19398 2.28123) rotate(78.681) scale(14.0296 57.8304)">
<stop stop-color="#3771C8"/>
<stop offset="0.128" stop-color="#3771C8"/>
<stop offset="1" stop-color="#6600FF" stop-opacity="0"/>
</radialGradient>
</defs>
</svg>
