<svg width="32" height="32" viewBox="0 0 32 32" fill="none" xmlns="http://www.w3.org/2000/svg">
<path d="M24.4675 0H7.64371C3.5445 0 0.221436 3.32306 0.221436 7.42227V24.2461C0.221436 28.3453 3.5445 31.6684 7.64371 31.6684H24.4675C28.5667 31.6684 31.8898 28.3453 31.8898 24.2461V7.42227C31.8898 3.32306 28.5667 0 24.4675 0Z" fill="white"/>
<path d="M24.4675 0H7.64371C3.5445 0 0.221436 3.32306 0.221436 7.42227V24.2461C0.221436 28.3453 3.5445 31.6684 7.64371 31.6684H24.4675C28.5667 31.6684 31.8898 28.3453 31.8898 24.2461V7.42227C31.8898 3.32306 28.5667 0 24.4675 0Z" fill="#0A66C2"/>
<path d="M23.0715 26.9286H26.6923C26.8236 26.9286 26.9494 26.8765 27.0422 26.7837C27.135 26.691 27.1871 26.5651 27.1872 26.4339L27.189 18.7838C27.189 14.7853 26.3274 11.7119 21.6547 11.7119C19.8785 11.6458 18.2034 12.5615 17.2995 14.0904C17.295 14.0979 17.2883 14.1036 17.2803 14.1069C17.2723 14.1101 17.2634 14.1107 17.2551 14.1084C17.2468 14.1062 17.2394 14.1012 17.2341 14.0944C17.2288 14.0875 17.2259 14.0792 17.2259 14.0705V12.5758C17.2259 12.4446 17.1737 12.3187 17.0809 12.2259C16.9881 12.1331 16.8623 12.081 16.731 12.081H13.2949C13.1637 12.081 13.0378 12.1331 12.945 12.2259C12.8522 12.3187 12.8001 12.4446 12.8001 12.5758V26.4332C12.8001 26.5644 12.8522 26.6903 12.945 26.7831C13.0378 26.8759 13.1637 26.928 13.2949 26.928H16.9155C17.0467 26.928 17.1726 26.8759 17.2654 26.7831C17.3582 26.6903 17.4103 26.5644 17.4103 26.4332V19.5833C17.4103 17.6465 17.7777 15.7707 20.1789 15.7707C22.546 15.7707 22.5767 17.987 22.5767 19.7087V26.4338C22.5767 26.565 22.6288 26.6909 22.7216 26.7837C22.8144 26.8765 22.9403 26.9286 23.0715 26.9286ZM4.92221 7.37613C4.92221 8.84388 6.13043 10.0515 7.59818 10.0515C9.06557 10.0514 10.273 8.84302 10.273 7.37563C10.2728 5.90825 9.0652 4.70077 7.59769 4.70077C6.12981 4.70077 4.92221 5.9085 4.92221 7.37613ZM5.78307 26.9286H9.40848C9.53971 26.9286 9.66557 26.8765 9.75836 26.7837C9.85116 26.6909 9.90329 26.565 9.90329 26.4338V12.5758C9.90329 12.4446 9.85116 12.3187 9.75836 12.2259C9.66557 12.1331 9.53971 12.081 9.40848 12.081H5.78307C5.65183 12.081 5.52597 12.1331 5.43318 12.2259C5.34038 12.3187 5.28825 12.4446 5.28825 12.5758V26.4338C5.28825 26.565 5.34038 26.6909 5.43318 26.7837C5.52597 26.8765 5.65183 26.9286 5.78307 26.9286Z" fill="white"/>
</svg>
