<svg width="104" height="27" viewBox="0 0 104 27" fill="none" xmlns="http://www.w3.org/2000/svg">
<path d="M28.1176 3.39217H25.5789V4.18973H27.3795C27.2904 5.30823 26.4116 5.78523 25.582 5.78523C24.5206 5.78523 23.5944 4.90107 23.5944 3.66175C23.5944 2.45456 24.4773 1.52487 25.5842 1.52487C26.4385 1.52487 26.9417 2.10123 26.9417 2.10123L27.4692 1.52292C27.4692 1.52292 26.7921 0.724976 25.5573 0.724976C23.985 0.724976 22.7687 2.12997 22.7687 3.64745C22.7687 5.13462 23.9129 6.58448 25.5973 6.58448C27.0791 6.58448 28.1637 5.51006 28.1637 3.92106C28.1637 3.58581 28.1176 3.39217 28.1176 3.39217Z" fill="#E8E8E8"/>
<path d="M28.5959 16.2467H34.1744C34.1783 16.2635 34.2752 16.687 34.2752 17.4087C34.2752 20.9003 31.8921 23.2617 28.6364 23.2617C24.9347 23.2617 22.4205 20.0755 22.4205 16.8079C22.4205 13.4732 25.0934 10.3858 28.5484 10.3859C31.2617 10.3859 32.7494 12.1393 32.7494 12.1393L31.5903 13.4101C31.5903 13.4101 30.4844 12.1433 28.6076 12.1433C26.1751 12.1433 24.235 14.1863 24.235 16.8391C24.235 19.5621 26.2702 21.505 28.6025 21.505C30.4255 21.505 32.3567 20.4569 32.5523 17.9993H28.5959V16.2467Z" fill="#E8E8E8"/>
<path fill-rule="evenodd" clip-rule="evenodd" d="M34.9869 19.0819C34.9869 16.8721 36.6273 14.9775 38.9165 14.9775C40.798 14.9775 42.8385 16.3891 42.8385 19.13C42.8385 21.5214 41.0843 23.2541 38.9431 23.2541C36.5779 23.2541 34.9869 21.3243 34.9869 19.0819ZM41.1315 19.1191C41.1315 17.5665 40.0648 16.6029 38.9391 16.6029C37.6743 16.6029 36.7022 17.6736 36.7022 19.107C36.7022 20.572 37.6865 21.6297 38.9339 21.6297C40.0693 21.6297 41.1315 20.6387 41.1315 19.1191Z" fill="#E8E8E8"/>
<path fill-rule="evenodd" clip-rule="evenodd" d="M47.5553 14.9775C45.2662 14.9775 43.6257 16.8721 43.6257 19.0819C43.6257 21.3243 45.2168 23.2541 47.5822 23.2541C49.7233 23.2541 51.4774 21.5214 51.4774 19.13C51.4774 16.3891 49.4371 14.9775 47.5553 14.9775ZM47.578 16.6029C48.7036 16.6029 49.7704 17.5665 49.7704 19.1191C49.7704 20.6387 48.7082 21.6297 47.5727 21.6297C46.3254 21.6297 45.3413 20.572 45.3413 19.107C45.3413 17.6736 46.3131 16.6029 47.578 16.6029Z" fill="#E8E8E8"/>
<path fill-rule="evenodd" clip-rule="evenodd" d="M52.2644 19.1168C52.2644 16.9301 53.9161 14.9819 56.017 14.9819C56.9317 14.9819 57.6208 15.3567 58.1246 15.9316V15.2307H59.7634V22.6668C59.7634 25.5885 58.1713 26.9813 56.0822 26.9813C54.1724 26.9813 53.0996 25.7381 52.5665 24.5444L54.0689 23.8795C54.277 24.4128 54.8759 25.3532 56.0698 25.3532C57.3057 25.3532 58.1245 24.4977 58.1245 23.07V22.254C57.6872 22.7913 57.0949 23.2596 55.9807 23.2596C54.1791 23.2596 52.2644 21.6078 52.2644 19.1168ZM56.169 16.6041C57.1992 16.6041 58.257 17.5353 58.257 19.1256C58.257 20.7421 57.2014 21.6329 56.1463 21.6329C55.0264 21.6329 53.984 20.67 53.984 19.141C53.984 17.5522 55.0665 16.6041 56.169 16.6041Z" fill="#E8E8E8"/>
<path fill-rule="evenodd" clip-rule="evenodd" d="M63.7488 19.1048C63.7488 16.6414 65.4128 14.9719 67.3947 14.9719C68.9578 14.9719 70.1389 16.0757 70.6452 17.3971L70.9174 18.0719L65.6761 20.3743C65.9892 20.9914 66.4946 21.6284 67.5933 21.6286C68.5715 21.6286 69.1578 21.0655 69.5085 20.4893L70.8596 21.4412C70.2538 22.2995 69.2388 23.2572 67.585 23.2572C65.6035 23.2572 63.7488 21.7114 63.7488 19.1048ZM67.4631 16.5636C68.1772 16.5636 68.6911 16.9655 68.9094 17.4475L65.4092 18.9964C65.2584 17.7972 66.3316 16.5636 67.4631 16.5636Z" fill="#E8E8E8"/>
<path d="M62.7993 23.0116H61.0777V10.8139H62.7993V23.0116Z" fill="#E8E8E8"/>
<path d="M84.1598 23.0116H85.8814V10.8139H84.1598V23.0116Z" fill="#E8E8E8"/>
<path fill-rule="evenodd" clip-rule="evenodd" d="M76.7519 23.0116H75.0303V10.8139L79.1948 10.8138C81.2135 10.8138 82.8651 12.5623 82.8651 14.6996C82.8651 16.8367 81.2135 18.5853 79.1948 18.5853H76.7519V23.0116ZM76.7519 16.7626V12.6365H79.1947C80.2633 12.6365 81.1436 13.5683 81.1436 14.6996C81.1436 15.8307 80.2633 16.7626 79.1947 16.7626H76.7519Z" fill="#E8E8E8"/>
<path d="M98.5922 26.9813L103.577 14.9722H101.697L99.4409 20.4066L97.1851 14.9722H95.3048L98.5007 22.6717L96.7119 26.9813H98.5922Z" fill="#E8E8E8"/>
<path fill-rule="evenodd" clip-rule="evenodd" d="M92.9273 23.0116H94.6489V18.6246C94.9183 14.1 89.5001 13.0358 87.45 16.2976L88.8354 17.2817C89.8378 15.4263 92.6983 15.8532 92.8863 17.8417C92.0266 17.6006 91.0979 17.4258 90.2494 17.5167C88.9249 17.6586 87.7909 18.5491 87.6107 20.0077C87.5133 20.7959 87.6795 21.7675 88.1992 22.3596C89.0092 23.2821 90.3389 23.4064 91.4314 23.0912C92.0464 22.9137 92.5306 22.5268 92.9273 22.027V23.0116ZM91.0221 21.5013C91.9644 21.2296 92.7071 20.4999 92.9273 19.4856C92.4456 19.3204 92.0024 19.1871 91.4945 19.1222C88.5361 18.6514 89.0314 22.0758 91.0221 21.5013Z" fill="#E8E8E8"/>
<path d="M39.2774 6.47082H38.494V0.919781H39.2774V6.47082Z" fill="#E8E8E8"/>
<path d="M34.1063 6.47082H34.8899V1.7492H36.1759V0.919781H32.8203V1.7492H34.1063V6.47082Z" fill="#E8E8E8"/>
<path d="M31.9942 6.47082H28.9896V0.919781H31.9942V1.7492H29.7731V3.28059H31.7268V4.11001H29.7731V5.64127H31.9942V6.47082Z" fill="#E8E8E8"/>
<path d="M41.9847 6.47082V1.7492H43.2707V0.919781H39.9152V1.7492H41.2013V6.47082H41.9847Z" fill="#E8E8E8"/>
<path fill-rule="evenodd" clip-rule="evenodd" d="M45.2866 3.64745C45.2866 2.12984 46.503 0.724976 48.0754 0.724976C49.6477 0.724976 50.8641 2.12984 50.8641 3.64745C50.8641 5.12266 49.738 6.5612 48.0754 6.58396C46.4127 6.5612 45.2866 5.12266 45.2866 3.64745ZM48.0754 5.78484C47.0243 5.77119 46.1124 4.89144 46.1124 3.66175C46.1124 2.46444 46.9811 1.54009 48.0754 1.52513C49.1698 1.54009 50.0383 2.46444 50.0383 3.66175C50.0383 4.89144 49.1264 5.77119 48.0754 5.78484Z" fill="#E8E8E8"/>
<path d="M52.4302 6.47082H51.6467V0.919781H52.4302L54.9452 4.96115V0.919781H55.7287V6.47082H54.9465L52.4302 2.42738V6.47082Z" fill="#E8E8E8"/>
<path d="M1.37601 7.64889L10.2282 17.0068L1.41851 26.4468C1.16142 26.2739 1.0236 25.8993 1.02127 25.4156L0.941431 8.66102C0.938974 8.13122 1.12101 7.80806 1.37601 7.64889Z" fill="#E8E8E8"/>
<path d="M2.38297 7.6615L13.1472 13.879L10.5943 16.6144L2.00736 7.53653C2.13743 7.55461 2.268 7.59505 2.38297 7.6615Z" fill="#E8E8E8"/>
<path d="M13.6259 19.8192L10.9631 17.0041L13.6232 14.1539L17.2865 16.2696C18.1889 16.7906 17.7273 17.4423 17.2865 17.6977L13.6259 19.8192Z" fill="#E8E8E8"/>
<path d="M2.38297 26.3337C2.30166 26.3818 2.22329 26.4195 2.14824 26.4494L10.5969 17.3966L13.1494 20.095L2.38297 26.3337Z" fill="#E8E8E8"/>
</svg>
