<svg width="32" height="23" viewBox="0 0 32 23" fill="none" xmlns="http://www.w3.org/2000/svg">
<path d="M31.301 4.28624C31.1193 3.61496 30.765 3.00298 30.2733 2.51124C29.7816 2.01949 29.1696 1.66514 28.4983 1.48346C26.0408 0.813232 16.1502 0.813232 16.1502 0.813232C16.1502 0.813232 6.25899 0.83352 3.80147 1.50375C3.13019 1.68544 2.51822 2.03981 2.02649 2.53158C1.53477 3.02334 1.18045 3.63535 0.998822 4.30665C0.255482 8.67317 -0.0328734 15.3267 1.01923 19.5186C1.20088 20.1899 1.5552 20.8018 2.04693 21.2936C2.53865 21.7853 3.15062 22.1397 3.82188 22.3214C6.2794 22.9916 16.1703 22.9916 16.1703 22.9916C16.1703 22.9916 26.0611 22.9916 28.5185 22.3214C29.1898 22.1397 29.8018 21.7854 30.2935 21.2936C30.7853 20.8019 31.1396 20.1899 31.3213 19.5186C32.1053 15.1459 32.3469 8.4964 31.301 4.28624Z" fill="#FF0000"/>
<path d="M13.002 16.6551L21.207 11.9026L13.002 7.15015V16.6551Z" fill="white"/>
</svg>
